<svg width="55" height="45" viewBox="0 0 55 45" fill="none" xmlns="http://www.w3.org/2000/svg">
    <path fill-rule="evenodd" clip-rule="evenodd"
          d="M41.3649 44.5031C42.0894 45.0161 43.0232 45.1444 43.8557 44.8294C44.6882 44.5121 45.3002 43.8011 45.4847 42.9394C47.44 33.7504 52.183 10.4921 53.9627 2.13334C54.0977 1.50334 53.8727 0.848585 53.3777 0.427834C52.8827 0.00708366 52.1965 -0.114417 51.5845 0.112834C42.1502 3.60484 13.0959 14.5061 1.2204 18.9004C0.466646 19.1794 -0.0238549 19.9039 0.000895172 20.6981C0.0278952 21.4946 0.563396 22.1854 1.33515 22.4171C6.6609 24.0101 13.6517 26.2264 13.6517 26.2264C13.6517 26.2264 16.9187 36.0926 18.6219 41.1101C18.8357 41.7401 19.3284 42.2351 19.9787 42.4061C20.6267 42.5749 21.3197 42.3971 21.8034 41.9404C24.5394 39.3574 28.7694 35.3636 28.7694 35.3636C28.7694 35.3636 36.8064 41.2564 41.3649 44.5031ZM16.5924 24.9799L20.3702 37.4404L21.2094 29.5496C21.2094 29.5496 35.8052 16.3849 44.1257 8.88109C44.3687 8.66059 44.4024 8.29159 44.1999 8.03284C43.9997 7.77409 43.6307 7.71334 43.3539 7.88884C33.7104 14.0471 16.5924 24.9799 16.5924 24.9799Z"
          fill="white"/>
</svg>
