<?xml version="1.0" encoding="UTF-8"?>
<svg xmlns="http://www.w3.org/2000/svg" id="Layer_1" data-name="Layer 1" viewBox="0 0 24 24" width="512" height="512"><path d="M21,15H10.26c-.8,0-1.55-.31-2.12-.88l-1.42-1.41c-.19-.19-.29-.44-.29-.71s.11-.52,.29-.71l1.42-1.41c.57-.57,1.32-.88,2.12-.88h10.74c1.65,0,3,1.35,3,3s-1.35,3-3,3Zm-12.15-4.41h0Zm9.15-4.59h-7.74c-.8,0-1.55-.31-2.12-.88l-1.42-1.41c-.19-.19-.29-.44-.29-.71s.11-.52,.29-.71l1.42-1.41c.57-.57,1.32-.88,2.12-.88h7.74c1.65,0,3,1.35,3,3s-1.35,3-3,3ZM8.85,1.59h0Zm7.15,22.41h-5.74c-.8,0-1.55-.31-2.12-.88l-1.42-1.41c-.19-.19-.29-.44-.29-.71s.11-.52,.29-.71l1.42-1.41c.57-.57,1.32-.88,2.12-.88h5.74c1.65,0,3,1.35,3,3s-1.35,3-3,3Zm-7.15-4.41h0Zm-6.85-.59c-1.1,0-2,.9-2,2s.9,2,2,2,2-.9,2-2-.9-2-2-2Zm0-9c-1.1,0-2,.9-2,2s.9,2,2,2,2-.9,2-2-.9-2-2-2ZM2,1C.9,1,0,1.9,0,3s.9,2,2,2,2-.9,2-2S3.1,1,2,1Z"/></svg>
