<?xml version="1.0" encoding="UTF-8"?>
<svg xmlns="http://www.w3.org/2000/svg" id="Layer_1" data-name="Layer 1" viewBox="0 0 24 24" width="512" height="512"><path d="m21,0H3C1.346,0,0,1.346,0,3v21h24V3c0-1.654-1.346-3-3-3Zm-2.879,10.621l-7.878,7.879h-4.243v-4.242l7.879-7.879c1.133-1.133,3.109-1.133,4.243,0,1.169,1.17,1.169,3.072,0,4.242Zm-3.871,1.043l-4.836,4.836h-1.415v-1.414l4.836-4.836,1.414,1.414Zm2.457-3.871c.39.39.39,1.024,0,1.414l-1.043,1.043-1.414-1.414,1.043-1.043c.377-.379,1.036-.379,1.414,0Z"/></svg>
