<?xml version="1.0" encoding="UTF-8"?>
<svg xmlns="http://www.w3.org/2000/svg" id="Layer_1" data-name="Layer 1" viewBox="0 0 24 24" width="512" height="512"><path d="M4.5,11h2c2.48,0,4.5-2.02,4.5-4.5v-2C11,2.02,8.98,0,6.5,0h-2C2.02,0,0,2.02,0,4.5v2c0,2.48,2.02,4.5,4.5,4.5Zm-1.5-6.5c0-.83,.67-1.5,1.5-1.5h2c.83,0,1.5,.67,1.5,1.5v2c0,.83-.67,1.5-1.5,1.5h-2c-.83,0-1.5-.67-1.5-1.5v-2ZM19.5,13h-2c-2.48,0-4.5,2.02-4.5,4.5v2c0,2.48,2.02,4.5,4.5,4.5h2c2.48,0,4.5-2.02,4.5-4.5v-2c0-2.48-2.02-4.5-4.5-4.5Zm1.5,6.5c0,.83-.67,1.5-1.5,1.5h-2c-.83,0-1.5-.67-1.5-1.5v-2c0-.83,.67-1.5,1.5-1.5h2c.83,0,1.5,.67,1.5,1.5v2Zm-10.29-.71c.39,.39,.39,1.02,0,1.41l-3,3.16c-.63,.63-1.71,.18-1.71-.71v-1.66h-1.5c-2.48,0-4.5-2.02-4.5-4.5v-2c0-.83,.67-1.5,1.5-1.5s1.5,.67,1.5,1.5v2c0,.83,.67,1.5,1.5,1.5h1.5v-1.66c0-.89,1.08-1.34,1.71-.71l3,3.16ZM24,7.5v2c0,.83-.67,1.5-1.5,1.5s-1.5-.67-1.5-1.5v-2c0-.83-.67-1.5-1.5-1.5h-1.5v1.66c0,.89-1.08,1.34-1.71,.71l-3-3.16c-.39-.39-.39-1.02,0-1.41l3-3.16c.63-.63,1.71-.18,1.71,.71v1.66h1.5c2.48,0,4.5,2.02,4.5,4.5Z"/></svg>
