<svg width="77" height="46" viewBox="0 0 77 46" fill="none" xmlns="http://www.w3.org/2000/svg">
    <path fill-rule="evenodd" clip-rule="evenodd"
          d="M74.4618 3.12194C74.9888 1.36572 74.4618 0.0750732 71.9554 0.0750732H63.666C61.5579 0.0750732 60.5863 1.18976 60.0601 2.41979C60.0601 2.41979 55.8438 12.6944 49.8722 19.3691C47.9408 21.3013 47.0627 21.9167 46.0078 21.9167C45.4816 21.9167 44.7189 21.3013 44.7189 19.5459V3.12194C44.7189 1.01464 44.1068 0.0750732 42.3506 0.0750732H29.3229C28.0061 0.0750732 27.2131 1.05337 27.2131 1.98115C27.2131 3.979 30.1993 4.44037 30.5075 10.0609V22.2678C30.5075 24.9442 30.0242 25.4308 28.9701 25.4308C26.1607 25.4308 19.3244 15.109 15.2698 3.29874C14.475 1.00286 13.6785 0.0759147 11.5603 0.0759147H3.27087C0.901741 0.0750728 0.428589 1.18976 0.428589 2.41895C0.428589 4.61464 3.23804 15.5047 13.5135 29.9073C20.3633 39.7424 30.0141 45.0751 38.7969 45.0751C44.0655 45.0751 44.718 43.8905 44.718 41.8506V34.4174C44.718 32.0482 45.2173 31.5759 46.8859 31.5759C48.1151 31.5759 50.2224 32.1897 55.1408 36.9321C60.7614 42.5527 61.6875 45.0742 64.8497 45.0742H73.1392C75.5066 45.0742 76.6912 43.8897 76.0084 41.5534C75.2599 39.2238 72.5768 35.8444 69.0163 31.8394C67.0842 29.5562 64.1855 27.097 63.3074 25.8669C62.0773 24.2867 62.4292 23.5845 63.3074 22.1785C63.3074 22.1785 73.4086 7.95197 74.4618 3.12194Z"
          fill="white"/>
</svg>
