<svg width="100" height="100" viewBox="0 0 100 100" fill="none" xmlns="http://www.w3.org/2000/svg">
    <path d="M0 50C0 63.2608 5.26784 75.9785 14.6447 85.3553C24.0215 94.7322 36.7392 100 50 100C63.2608 100 75.9785 94.7322 85.3553 85.3553C94.7322 75.9785 100 63.2608 100 50C100 36.7392 94.7322 24.0215 85.3553 14.6447C75.9785 5.26784 63.2608 0 50 0C36.7392 0 24.0215 5.26784 14.6447 14.6447C5.26784 24.0215 0 36.7392 0 50Z"
          fill="#0A293A"/>
    <path d="M85.3248 59.0472C80.2599 59.0472 77.5493 52.3217 74.6794 45.2015C71.6342 37.6445 68.4842 29.83 61.7741 29.83C55.0559 29.83 52.0594 39.2629 48.9288 49.3382C46.1646 51.9725 43.4807 54.4063 38.2193 54.4063C32.8759 54.4063 30.1888 51.4244 27.3433 48.2671C26.3047 47.1156 25.2287 45.9283 24.0074 44.8694L23.983 44.8377C23.3618 43.9786 22.7016 43.2014 22.0178 42.5258L22.017 42.5266C21.9269 42.4365 21.8205 42.3658 21.7068 42.3065C19.8488 40.0043 17.6002 38.5166 14.6751 38.5166C14.0019 38.5166 13.457 39.0615 13.457 39.7347C13.457 40.4079 14.0019 40.9528 14.6751 40.9528C19.7392 40.9528 22.4498 47.6783 25.3189 54.7985C28.3641 62.3556 31.5133 70.1701 38.2226 70.1701C44.9392 70.1701 47.9365 60.7396 51.0662 50.6667C53.8321 48.0308 56.516 45.5946 61.7692 45.5946C67.115 45.5946 69.8005 48.5724 72.6436 51.724C73.6863 52.8804 74.7663 54.0709 75.9933 55.1323L76.0169 55.1631C76.6381 56.0223 77.2983 56.7994 77.9821 57.4751L77.9829 57.4743C78.0722 57.5636 78.1778 57.6342 78.2915 57.6935C80.1503 59.9965 82.3989 61.4842 85.3248 61.4842C85.998 61.4842 86.5429 60.9393 86.5429 60.2661C86.5429 59.5929 85.998 59.0472 85.3248 59.0472ZM61.7741 32.267C65.7524 32.267 68.2771 36.4207 70.5679 41.6504C68.3754 38.8593 65.6744 36.8446 61.77 36.8446C58.8247 36.8446 56.5663 38.1073 54.6961 40.049C56.5858 35.5307 58.8011 32.267 61.7741 32.267ZM38.2185 56.8425C41.6113 56.8425 44.0914 55.9817 46.1402 54.7352C44.0865 58.1816 41.7201 60.7193 38.2185 60.7193C34.0128 60.7193 31.45 57.4856 29.1071 53.4968C31.3687 55.3865 34.1809 56.8425 38.2185 56.8425ZM38.2234 67.7331C34.2491 67.7331 31.7261 63.5875 29.4368 58.3643C31.6245 61.1472 34.3214 63.1555 38.2193 63.1555C41.1679 63.1555 43.4295 61.8943 45.3005 59.9535C43.41 64.471 41.1947 67.7331 38.2234 67.7331ZM61.77 43.1576C58.3837 43.1576 55.9069 44.0175 53.8597 45.2641C55.9126 41.8185 58.2757 39.2808 61.77 39.2808C65.9773 39.2808 68.5443 42.516 70.8911 46.5073C68.6287 44.616 65.8149 43.1576 61.77 43.1576Z"
          fill="url(#paint0_linear_133_1062)"/>
    <defs>
        <linearGradient id="paint0_linear_133_1062" x1="14.035" y1="50.8772" x2="85.9648" y2="50.8772"
                        gradientUnits="userSpaceOnUse">
            <stop stop-color="#4970FB"/>
            <stop offset="1" stop-color="#0FFFA9"/>
        </linearGradient>
    </defs>
</svg>
