<svg width="31" height="30" viewBox="0 0 31 30" fill="none" xmlns="http://www.w3.org/2000/svg">
    <path d="M15.1 30C23.4 30 30.1 23.3 30.1 15C30.1 6.7 23.4 0 15.1 0C6.80003 0 0.100027 6.7 0.100027 15C2.7007e-05 23.3 6.80003 30 15.1 30Z"
          fill="#FED42B"/>
    <mask id="mask0_167_1653" style="mask-type:luminance" maskUnits="userSpaceOnUse" x="0" y="0" width="31" height="30">
        <path d="M15.1 30C23.4 30 30.1 23.3 30.1 15C30.1 6.7 23.4 0 15.1 0C6.80003 0 0.100027 6.7 0.100027 15C2.7007e-05 23.3 6.80003 30 15.1 30Z"
              fill="white"/>
    </mask>
    <g mask="url(#mask0_167_1653)">
        <path d="M7.7 8.19998L-5.5 25.5L-2 29.5L7.8 16.5L6.8 23.6L12.3 25.5L19 14.8C18.7 16.8 18.2 21.4 22.6 22.8C29.5 24.9 35.5 12.5 38.3 6.19998L34.3 4.09998C31.2 10.6 26.4 17.8 24.5 17.3C22.6 16.8 24.3 10.7 25.4 6.79998V6.69998L19.3 4.59998L12 16.5L13 9.99998L7.7 8.19998Z"
              fill="black"/>
    </g>
</svg>
